<svg width="120" height="106" viewBox="0 0 120 106" fill="none" xmlns="http://www.w3.org/2000/svg">
<path d="M20.5184 1.5C26.5239 1.5 31.8972 4.40569 35.3922 8.97517L36.6577 11.5691C37.1671 11.3206 37.6801 11.0793 38.1966 10.8454C44.9505 7.78752 52.3085 6 60 6C67.6983 6 75.0624 7.79066 81.8212 10.8535C81.8251 10.8553 81.829 10.8571 81.8329 10.8588C82.3395 11.0885 82.8426 11.3254 83.3423 11.5691L84.4061 9.38871C87.8691 5.15696 92.9877 2.5 98.6788 2.5C109.009 2.5 117.5 11.2928 117.5 22.2877C117.5 27.8261 115.338 32.82 111.867 36.4049C111.866 36.4055 111.865 36.4061 111.865 36.4067C111.697 36.5801 111.526 36.7502 111.352 36.9169L111.361 36.9267L111.08 37.2172L111.108 37.2659L111.1 37.2706C111.285 37.5786 111.466 37.8873 111.644 38.1966C111.644 38.1967 111.644 38.1969 111.644 38.197C116.051 45.8486 118.5 53.834 118.5 61C118.5 76.4997 112.035 87.0205 101.614 93.7393C91.0975 100.519 76.4273 103.5 60 103.5H59.9449L59.89 103.504C26.4766 105.961 1.5 84.1686 1.5 61C1.5 53.8334 3.94913 45.8472 8.35681 38.195C8.53466 37.8862 8.71566 37.5781 8.89976 37.2706L8.89194 37.2659L8.96093 37.1462L8.64478 36.8601L8.65494 36.8479C8.45543 36.6816 8.25916 36.5111 8.06625 36.3366C8.06531 36.3358 8.06438 36.3349 8.06344 36.3341C4.04865 32.7012 1.5 27.3382 1.5 21.3403C1.5 10.3267 10.0698 1.5 20.5184 1.5Z" stroke="#272626" stroke-opacity="0.75" stroke-width="3"/>
<path d="M86 61C86 64.3137 83.3137 62 80 62C76.6863 62 74 64.3137 74 61C74 57.6863 76.6863 55 80 55C83.3137 55 86 57.6863 86 61Z" fill="#272626" fill-opacity="0.75"/>
<path d="M42 62C42 65.3137 39.3137 64 36 64C32.6863 64 30 65.3137 30 62C30 58.6863 32.6863 56 36 56C39.3137 56 42 58.6863 42 62Z" fill="#272626" fill-opacity="0.75"/>
<path d="M59.2975 75.4043C58.6064 75.9035 57.6749 75.9098 56.9772 75.42L52.1749 72.0485C50.5761 70.926 51.3695 68.4127 53.3229 68.4116L58.1429 68.4089L62.7972 68.4089C64.7375 68.4089 65.5412 70.8939 63.9684 72.0301L59.2975 75.4043Z" fill="#272626" fill-opacity="0.75"/>
<path d="M73.8801 75.5399C74.4006 75.4021 74.942 75.7128 75.0008 76.2481C75.0734 76.9083 75.046 77.5818 74.9182 78.2512C74.7279 79.2483 74.3185 80.2169 73.7134 81.1016C73.1083 81.9863 72.3193 82.7699 71.3916 83.4076C70.4638 84.0452 69.4154 84.5245 68.3062 84.8181C67.197 85.1116 66.0487 85.2137 64.927 85.1184C63.8053 85.0231 62.732 84.7324 61.7684 84.2628C60.8049 83.7932 59.97 83.154 59.3114 82.3816C58.8692 81.863 58.5123 81.2912 58.2488 80.6815C58.0351 80.1873 58.3519 79.6494 58.8725 79.5116V79.5116C59.3931 79.3739 59.9188 79.6903 60.1533 80.1751C60.3467 80.5748 60.593 80.9516 60.8882 81.2978C61.3998 81.8978 62.0484 82.3944 62.7969 82.7592C63.5453 83.1239 64.3791 83.3498 65.2505 83.4238C66.1218 83.4978 67.0138 83.4185 67.8754 83.1905C68.7371 82.9625 69.5515 82.5901 70.2722 82.0948C70.9929 81.5994 71.6058 80.9908 72.0758 80.3035C72.5459 79.6162 72.8639 78.8639 73.0118 78.0893C73.0971 77.6424 73.1247 77.1931 73.0951 76.75C73.0591 76.2127 73.3595 75.6776 73.8801 75.5399V75.5399Z" fill="#BE895F"/>
<path d="M73.8801 75.5399C74.4006 75.4021 74.942 75.7128 75.0008 76.2481C75.0734 76.9083 75.046 77.5818 74.9182 78.2512C74.7279 79.2483 74.3185 80.2169 73.7134 81.1016C73.1083 81.9863 72.3193 82.7699 71.3916 83.4076C70.4638 84.0452 69.4154 84.5245 68.3062 84.8181C67.197 85.1116 66.0487 85.2137 64.927 85.1184C63.8053 85.0231 62.732 84.7324 61.7684 84.2628C60.8049 83.7932 59.97 83.154 59.3114 82.3816C58.8692 81.863 58.5123 81.2912 58.2488 80.6815C58.0351 80.1873 58.3519 79.6494 58.8725 79.5116V79.5116C59.3931 79.3739 59.9188 79.6903 60.1533 80.1751C60.3467 80.5748 60.593 80.9516 60.8882 81.2978C61.3998 81.8978 62.0484 82.3944 62.7969 82.7592C63.5453 83.1239 64.3791 83.3498 65.2505 83.4238C66.1218 83.4978 67.0138 83.4185 67.8754 83.1905C68.7371 82.9625 69.5515 82.5901 70.2722 82.0948C70.9929 81.5994 71.6058 80.9908 72.0758 80.3035C72.5459 79.6162 72.8639 78.8639 73.0118 78.0893C73.0971 77.6424 73.1247 77.1931 73.0951 76.75C73.0591 76.2127 73.3595 75.6776 73.8801 75.5399V75.5399Z" fill="#272626" fill-opacity="0.75"/>
<path d="M13.9245 26.2838C13.1204 27.0411 11.8364 27.0106 11.2363 26.0833C10.8247 25.4473 10.4791 24.7695 10.2058 24.0604C9.69265 22.7284 9.44521 21.312 9.47764 19.8921C9.51007 18.4722 9.82174 17.0765 10.3948 15.7848C10.968 14.4931 11.7913 13.3306 12.8178 12.3638C13.8444 11.397 15.054 10.6447 16.3777 10.1499C17.7014 9.65516 19.1132 9.42759 20.5325 9.48021C21.9518 9.53282 23.3509 9.8646 24.6498 10.4566C25.3413 10.7718 25.9972 11.1574 26.6073 11.6063C27.4971 12.2608 27.4507 13.5444 26.6466 14.3017L20.2856 20.2927L13.9245 26.2838Z" fill="#272626" fill-opacity="0.75"/>
<path d="M92.4095 13.7942C91.6676 12.9758 91.7225 11.6926 92.661 11.1102C93.3047 10.7108 93.989 10.3781 94.7031 10.1184C96.0446 9.63058 97.4654 9.41008 98.8845 9.46946C100.304 9.52885 101.693 9.86697 102.974 10.4645C104.254 11.062 105.401 11.9073 106.348 12.952C107.295 13.9967 108.024 15.2205 108.494 16.5533C108.963 17.8861 109.164 19.302 109.085 20.7201C109.005 22.1381 108.647 23.5306 108.03 24.818C107.702 25.5034 107.304 26.1519 106.844 26.7534C106.172 27.6306 104.89 27.5599 104.148 26.7415L98.2787 20.2678L92.4095 13.7942Z" fill="#272626" fill-opacity="0.75"/>
</svg>
