<svg width="128" height="114" viewBox="0 0 128 114" fill="none" xmlns="http://www.w3.org/2000/svg">
<g filter="url(#filter0_d_606_7161)">
<path d="M64 105C97.1371 105 124 93 124 61C124 53.5085 121.447 45.2664 116.944 37.4484C120.683 33.5878 123 28.2213 123 22.2877C123 10.5308 113.902 1 102.679 1C96.0424 1 90.149 4.33253 86.4403 9.48726C79.5083 6.34588 71.934 4.5 64 4.5C56.073 4.5 48.505 6.34264 41.5779 9.47898C37.8966 3.76299 31.63 0 24.5184 0C13.1864 0 4 9.55436 4 21.3403C4 27.769 6.73322 33.5339 11.057 37.4463C6.55347 45.2649 4 53.5079 4 61C4 85.3005 30 107.5 64 105Z" fill="white"/>
<path d="M24.5184 1.5C30.5239 1.5 35.8972 4.40569 39.3922 8.97517L40.6577 11.5691C41.1671 11.3206 41.6801 11.0793 42.1966 10.8454C48.9505 7.78752 56.3085 6 64 6C71.6983 6 79.0624 7.79066 85.8212 10.8535C85.8251 10.8553 85.829 10.8571 85.8329 10.8588C86.3395 11.0885 86.8426 11.3254 87.3423 11.5691L88.4061 9.38871C91.8691 5.15696 96.9877 2.5 102.679 2.5C113.009 2.5 121.5 11.2928 121.5 22.2877C121.5 27.8261 119.338 32.82 115.867 36.4049C115.866 36.4055 115.865 36.4061 115.865 36.4067C115.697 36.5801 115.526 36.7502 115.352 36.9169L115.361 36.9267L115.08 37.2172L115.108 37.2659L115.1 37.2706C115.285 37.5786 115.466 37.8873 115.644 38.1966C115.644 38.1967 115.644 38.1969 115.644 38.197C120.051 45.8486 122.5 53.834 122.5 61C122.5 76.4997 116.035 87.0205 105.614 93.7393C95.0975 100.519 80.4273 103.5 64 103.5H63.9449L63.89 103.504C30.4766 105.961 5.5 84.1686 5.5 61C5.5 53.8334 7.94913 45.8472 12.3568 38.195C12.5347 37.8862 12.7157 37.5781 12.8998 37.2706L12.8919 37.2659L12.9609 37.1462L12.6448 36.8601L12.6549 36.8479C12.4554 36.6816 12.2592 36.5111 12.0663 36.3366C12.0653 36.3358 12.0644 36.3349 12.0634 36.3341C8.04865 32.7012 5.5 27.3382 5.5 21.3403C5.5 10.3267 14.0698 1.5 24.5184 1.5Z" stroke="#272626" stroke-opacity="0.75" stroke-width="3"/>
<path d="M90 61C90 64.3137 87.3137 62 84 62C80.6863 62 78 64.3137 78 61C78 57.6863 80.6863 55 84 55C87.3137 55 90 57.6863 90 61Z" fill="#272626" fill-opacity="0.75"/>
<path d="M46 62C46 65.3137 43.3137 64 40 64C36.6863 64 34 65.3137 34 62C34 58.6863 36.6863 56 40 56C43.3137 56 46 58.6863 46 62Z" fill="#272626" fill-opacity="0.75"/>
<path d="M63.2975 75.4043C62.6064 75.9035 61.6749 75.9098 60.9772 75.42L56.1749 72.0485C54.5761 70.926 55.3695 68.4127 57.3229 68.4116L62.1429 68.4089L66.7972 68.4089C68.7375 68.4089 69.5412 70.8939 67.9684 72.0301L63.2975 75.4043Z" fill="#272626" fill-opacity="0.75"/>
<path d="M77.8801 75.5399C78.4006 75.4021 78.942 75.7128 79.0008 76.2481C79.0734 76.9083 79.046 77.5818 78.9182 78.2512C78.7279 79.2483 78.3185 80.2169 77.7134 81.1016C77.1083 81.9863 76.3193 82.7699 75.3916 83.4076C74.4638 84.0452 73.4154 84.5245 72.3062 84.8181C71.197 85.1116 70.0487 85.2137 68.927 85.1184C67.8053 85.0231 66.732 84.7324 65.7684 84.2628C64.8049 83.7932 63.97 83.154 63.3114 82.3816C62.8692 81.863 62.5123 81.2912 62.2488 80.6815C62.0351 80.1873 62.3519 79.6494 62.8725 79.5116V79.5116C63.3931 79.3739 63.9188 79.6903 64.1533 80.1751C64.3467 80.5748 64.593 80.9516 64.8882 81.2978C65.3998 81.8978 66.0484 82.3944 66.7969 82.7592C67.5453 83.1239 68.3791 83.3498 69.2505 83.4238C70.1218 83.4978 71.0138 83.4185 71.8754 83.1905C72.7371 82.9625 73.5515 82.5901 74.2722 82.0948C74.9929 81.5994 75.6058 80.9908 76.0758 80.3035C76.5459 79.6162 76.8639 78.8639 77.0118 78.0893C77.0971 77.6424 77.1247 77.1931 77.0951 76.75C77.0591 76.2127 77.3595 75.6776 77.8801 75.5399V75.5399Z" fill="#BE895F"/>
<path d="M77.8801 75.5399C78.4006 75.4021 78.942 75.7128 79.0008 76.2481C79.0734 76.9083 79.046 77.5818 78.9182 78.2512C78.7279 79.2483 78.3185 80.2169 77.7134 81.1016C77.1083 81.9863 76.3193 82.7699 75.3916 83.4076C74.4638 84.0452 73.4154 84.5245 72.3062 84.8181C71.197 85.1116 70.0487 85.2137 68.927 85.1184C67.8053 85.0231 66.732 84.7324 65.7684 84.2628C64.8049 83.7932 63.97 83.154 63.3114 82.3816C62.8692 81.863 62.5123 81.2912 62.2488 80.6815C62.0351 80.1873 62.3519 79.6494 62.8725 79.5116V79.5116C63.3931 79.3739 63.9188 79.6903 64.1533 80.1751C64.3467 80.5748 64.593 80.9516 64.8882 81.2978C65.3998 81.8978 66.0484 82.3944 66.7969 82.7592C67.5453 83.1239 68.3791 83.3498 69.2505 83.4238C70.1218 83.4978 71.0138 83.4185 71.8754 83.1905C72.7371 82.9625 73.5515 82.5901 74.2722 82.0948C74.9929 81.5994 75.6058 80.9908 76.0758 80.3035C76.5459 79.6162 76.8639 78.8639 77.0118 78.0893C77.0971 77.6424 77.1247 77.1931 77.0951 76.75C77.0591 76.2127 77.3595 75.6776 77.8801 75.5399V75.5399Z" fill="#272626" fill-opacity="0.75"/>
<path d="M17.9245 26.2838C17.1204 27.0411 15.8364 27.0106 15.2363 26.0833C14.8247 25.4473 14.4791 24.7695 14.2058 24.0604C13.6927 22.7284 13.4452 21.312 13.4776 19.8921C13.5101 18.4722 13.8217 17.0765 14.3948 15.7848C14.968 14.4931 15.7913 13.3306 16.8178 12.3638C17.8444 11.397 19.054 10.6447 20.3777 10.1499C21.7014 9.65516 23.1132 9.42759 24.5325 9.48021C25.9518 9.53282 27.3509 9.8646 28.6498 10.4566C29.3413 10.7718 29.9972 11.1574 30.6073 11.6063C31.4971 12.2608 31.4507 13.5444 30.6466 14.3017L24.2856 20.2927L17.9245 26.2838Z" fill="#272626" fill-opacity="0.75"/>
<path d="M96.4134 13.7942C95.6715 12.9758 95.7264 11.6926 96.6649 11.1102C97.3086 10.7108 97.9929 10.3781 98.707 10.1184C100.049 9.63058 101.469 9.41008 102.888 9.46946C104.307 9.52885 105.697 9.86697 106.978 10.4645C108.258 11.062 109.405 11.9073 110.352 12.952C111.299 13.9967 112.028 15.2205 112.498 16.5533C112.967 17.8861 113.168 19.302 113.088 20.7201C113.009 22.1381 112.651 23.5306 112.034 24.818C111.706 25.5034 111.308 26.1519 110.847 26.7534C110.176 27.6306 108.894 27.5599 108.152 26.7415L102.283 20.2678L96.4134 13.7942Z" fill="#272626" fill-opacity="0.75"/>
</g>
<defs>
<filter id="filter0_d_606_7161" x="0" y="0" width="128" height="113.195" filterUnits="userSpaceOnUse" color-interpolation-filters="sRGB">
<feFlood flood-opacity="0" result="BackgroundImageFix"/>
<feColorMatrix in="SourceAlpha" type="matrix" values="0 0 0 0 0 0 0 0 0 0 0 0 0 0 0 0 0 0 127 0" result="hardAlpha"/>
<feOffset dy="4"/>
<feGaussianBlur stdDeviation="2"/>
<feComposite in2="hardAlpha" operator="out"/>
<feColorMatrix type="matrix" values="0 0 0 0 0.4 0 0 0 0 0.380392 0 0 0 0 0.639216 0 0 0 0.5 0"/>
<feBlend mode="normal" in2="BackgroundImageFix" result="effect1_dropShadow_606_7161"/>
<feBlend mode="normal" in="SourceGraphic" in2="effect1_dropShadow_606_7161" result="shape"/>
</filter>
</defs>
</svg>
