<svg width="70" height="51" viewBox="0 0 70 51" fill="none" xmlns="http://www.w3.org/2000/svg">
<path d="M34.8508 28.4359L36.3617 26.3063C39.6826 21.6256 40.5492 15.6332 38.6903 10.2034L38.5176 9.69889C37.3997 6.43354 35.2691 3.61008 32.4357 1.63935V1.63935C31.977 1.32031 31.3532 1.38881 30.9747 1.79978L25.8726 7.33904C24.1058 9.25724 22.9237 11.6402 22.4653 14.2075V14.2075C21.6626 18.704 23.1553 23.3048 26.4452 26.4734L28.9916 28.9259M30.5538 30.4305L28.9916 28.9259M28.9916 28.9259L20.1585 25.8049C17.3993 24.83 14.4294 24.612 11.5574 25.1736V25.1736C8.00181 25.869 4.77703 27.7234 2.38771 30.4468L1.50956 31.4478C0.940714 32.0962 1.08848 33.0999 1.82006 33.5568L4.71012 35.3619C7.49061 37.0986 10.5454 38.3513 13.7447 39.0666L16.4539 39.6724M27.3438 34.8533L25.285 36.1304L20.3939 39.0426C19.2092 39.7479 17.7995 39.9733 16.4539 39.6724V39.6724M16.4539 39.6724L14.8162 41.8514C13.9724 42.9739 13.6397 44.3995 13.8992 45.7795L14.1026 46.8614C14.2609 47.703 14.9375 48.3505 15.7853 48.4717L21.5413 49.2941C24.2432 49.6802 26.9991 49.2625 29.4653 48.093L30.8109 47.455C32.6967 46.5608 34.2357 45.0708 35.1905 43.2149V43.2149C35.9689 41.702 36.3269 40.0078 36.2272 38.3093L35.8531 31.9369M35.8531 31.9369L38.1863 33.306C39.2275 33.917 40.4545 34.1307 41.6409 33.9076L42.1289 33.8158M35.8531 31.9369L35.5072 31.7339C34.7273 31.2762 34.9071 30.1007 35.7882 29.8971L37.4283 29.5181C39.1654 29.1167 40.9848 29.6707 42.2035 30.972L43.2115 32.0484C43.7509 32.6244 43.4419 33.5689 42.6664 33.7147L42.1289 33.8158M36.9712 37.9375L41.0787 40.5236C43.7051 42.1772 46.7225 43.106 49.8241 43.2156V43.2156C51.8528 43.2873 53.8785 43.0071 55.8115 42.3874L59.6776 41.148C60.3739 40.9248 61.0517 40.6474 61.7046 40.3183V40.3183C64.3469 38.9866 66.4994 36.852 67.8531 34.2209L68.2164 33.5147C68.4545 33.052 68.3471 32.4866 67.9559 32.1434L64.7836 29.3603C62.2246 27.1152 59.189 25.4808 55.906 24.5804L55.7354 24.5336C53.9956 24.0565 52.2017 23.8044 50.3977 23.7836L49.7602 23.7763C48.2873 23.7593 46.8189 23.9409 45.3946 24.3162V24.3162C43.2444 24.8828 41.2319 25.881 39.4796 27.25L37.4477 28.8375M30.5444 23.1832V23.1832C29.7793 24.6703 29.8617 26.4518 30.7607 27.862L32.4118 30.4519L33.7381 27.8741C34.6615 26.0792 34.4152 23.9051 33.1135 22.3623L31.7799 20.7817L30.5444 23.1832ZM30.5444 23.1832L30.5444 20.4656M32.1468 6.11436L31.2728 11.1002M30.5444 17.7481L30.5444 15.6901C30.5444 15.4007 30.5695 15.1118 30.6195 14.8267L30.8357 13.5932M30.5444 17.7481L36.3795 16.9171M30.5444 17.7481L30.5444 20.4656M30.8357 13.5932L25.684 11.9312M30.8357 13.5932L31.2728 11.1002M31.2728 11.1002L35.8531 10.2763M30.5444 20.4656L25.285 17.7481M28.8431 37.9858L25.6096 40.6376C25.3936 40.8148 25.1631 40.9735 24.9206 41.1122L18.5491 44.7549M23.1672 43.324L23.7444 46.4169M27.3438 40.8127L29.3089 43.6133M23.7444 40.8127L22.0825 40.1409M44.4567 31.9369L50.8941 30.6784C51.6208 30.5363 52.37 30.5574 53.0875 30.7402L54.9062 31.2033M60.7237 32.6849L54.9062 31.2033M47.5408 30.4626L49.5048 26.2461M54.9062 31.2033L58.6456 28.9259M42.1289 33.8158L45.0886 38.2693M49.5048 31.9369L52.8901 37.9375M56.9836 32.7274L58.6456 37.0808M30.5444 31.7611L23.1672 31.0079M7.12484 31.2033L12.3185 30.8169M12.3185 30.8169L10.0333 34.8533M12.3185 30.8169L14.9153 30.6237M14.9153 30.6237L17.0721 30.4632C17.3649 30.4415 17.659 30.4455 17.951 30.4753L19.4045 30.6237M14.9153 30.6237L12.3185 27.3043M19.4045 30.6237L16.4539 36.1304M19.4045 30.6237L23.1672 31.0079M23.1672 31.0079L20.005 27.7198M33.14 31.7611L30.3991 33.0334C29.3906 33.5015 28.5669 34.2924 28.0582 35.2811L27.1323 37.0808L27.7548 37.111C30.2663 37.233 32.4777 35.471 32.9196 32.9957L33.14 31.7611Z" stroke="#272626" stroke-opacity="0.75" stroke-width="2" stroke-linecap="round" stroke-linejoin="round"/>
</svg>
