<svg width="75" height="49" viewBox="0 0 75 49" fill="none" xmlns="http://www.w3.org/2000/svg">
<path d="M15.0495 26.9464L36.0415 27.5274M36.0415 27.5274L60.6133 7.1995M36.0415 27.5274L35.8063 36.0242M64.9594 12.8219L65.1255 6.8242C65.2019 4.06383 63.0261 1.76417 60.2657 1.68777L43.141 1.21378C41.9363 1.18043 40.7602 1.58329 39.829 2.34821L11.8128 25.3612C10.694 26.2803 10.0284 27.6392 9.98838 29.0865L9.76093 37.304M64.9594 12.8219L64.923 14.1368C64.8845 15.5291 64.267 16.8422 63.2192 17.7599L38.6552 39.273C37.7076 40.1029 36.4818 40.5446 35.2226 40.5097L12.1908 39.8722C10.8106 39.834 9.72273 38.6842 9.76093 37.304V37.304M64.9594 12.8219L71.1767 12.994C72.951 13.0431 73.7868 15.2072 72.5061 16.4362L41.4957 46.1958C40.5301 47.1225 39.2332 47.6234 37.8953 47.5864L3.56171 46.6361C1.68756 46.5842 0.908499 44.2139 2.38643 43.0603L9.76093 37.304" stroke="#272626" stroke-opacity="0.75" stroke-width="2" stroke-linecap="round" stroke-linejoin="round"/>
</svg>
