<svg width="52" height="35" viewBox="0 0 52 35" fill="none" xmlns="http://www.w3.org/2000/svg">
<path d="M18.5455 8.94444L18.7803 7.83004C19.3063 5.33427 21.6265 3.63444 24.1647 3.88536L31.2955 4.59028M21.733 28.8056L20.2429 31.2339C19.2105 32.9163 17.2849 33.8338 15.3279 33.5759L5.8208 32.3228C2.76807 31.9204 0.800999 28.8809 1.68437 25.9312L3.33594 20.4164C3.42993 20.1025 3.49285 19.7802 3.52378 19.454L4.12275 13.1381C4.39913 10.2238 7.10904 8.1692 9.98982 8.68994L20.8099 10.6458C23.1897 11.076 24.9205 13.1477 24.9205 15.5661V22.1993C24.9205 23.1225 24.6649 24.0276 24.1821 24.8144L21.733 28.8056ZM21.733 28.8056L30.8512 29.0292C32.874 29.0788 34.7272 27.9044 35.5461 26.0542L36.6273 23.6111M31.2955 4.59028L33.7419 4.83212C36.3003 5.08504 38.25 7.23694 38.25 9.80787V18.8875C38.25 19.5844 38.1043 20.2737 37.8222 20.911L36.6273 23.6111M31.2955 4.59028V4.59028C31.2955 2.68327 32.9659 1.20723 34.8584 1.442L46.6156 2.90053C49.1197 3.21119 51 5.33911 51 7.8625V15.6563C51 16.8463 50.5756 17.9972 49.8031 18.9023L47.2812 21.8571C46.3312 22.9701 44.9413 23.6111 43.4781 23.6111H36.6273" stroke="#272626" stroke-opacity="0.75" stroke-width="2" stroke-linecap="round" stroke-linejoin="round"/>
<ellipse cx="8.69673" cy="16.2791" rx="0.579545" ry="0.611111" fill="#D9D9D9"/>
<ellipse cx="8.69673" cy="16.8902" rx="0.579545" ry="1.22222" fill="#272626" fill-opacity="0.75"/>
<ellipse cx="14.4858" cy="22.9996" rx="0.579545" ry="1.22222" fill="#272626" fill-opacity="0.75"/>
<ellipse cx="6.37642" cy="26.6675" rx="0.579545" ry="1.22222" fill="#272626" fill-opacity="0.75"/>
<ellipse cx="17.9624" cy="15.6675" rx="0.579545" ry="1.22222" fill="#272626" fill-opacity="0.75"/>
<ellipse cx="15.6499" cy="27.8902" rx="0.579545" ry="1.22222" fill="#272626" fill-opacity="0.75"/>
<ellipse cx="31.8764" cy="22.9996" rx="0.579545" ry="1.22222" fill="#272626" fill-opacity="0.75"/>
<ellipse cx="31.8764" cy="10.7769" rx="0.579545" ry="1.22222" fill="#272626" fill-opacity="0.75"/>
<ellipse cx="28.3999" cy="18.1128" rx="0.579545" ry="1.22222" fill="#272626" fill-opacity="0.75"/>
<ellipse cx="41.1499" cy="7.11285" rx="0.579545" ry="1.22222" fill="#272626" fill-opacity="0.75"/>
<ellipse cx="44.6264" cy="14.4449" rx="0.579545" ry="1.22222" fill="#272626" fill-opacity="0.75"/>
<ellipse cx="41.1499" cy="19.3316" rx="0.579545" ry="1.22222" fill="#272626" fill-opacity="0.75"/>
</svg>
