<svg width="82" height="46" viewBox="0 0 82 46" fill="none" xmlns="http://www.w3.org/2000/svg">
<path d="M67 29.5C67 29.6303 66.9404 29.8633 66.6 30.2058C66.2567 30.5511 65.6983 30.9323 64.8904 31.3256C63.2789 32.11 60.8825 32.8439 57.84 33.4703C51.7714 34.7197 43.3422 35.5 34 35.5C24.6578 35.5 16.2286 34.7197 10.16 33.4703C7.11751 32.8439 4.72111 32.11 3.10955 31.3256C2.30165 30.9323 1.74325 30.5511 1.40002 30.2058C1.05964 29.8633 1 29.6303 1 29.5C1 29.3697 1.05964 29.1367 1.40002 28.7942C1.74325 28.4489 2.30165 28.0677 3.10955 27.6744C4.72111 26.89 7.11751 26.1561 10.16 25.5297C16.2286 24.2803 24.6578 23.5 34 23.5C43.3422 23.5 51.7714 24.2803 57.84 25.5297C60.8825 26.1561 63.2789 26.89 64.8904 27.6744C65.6983 28.0677 66.2567 28.4489 66.6 28.7942C66.9404 29.1367 67 29.3697 67 29.5Z" stroke="#272626" stroke-opacity="0.75" stroke-width="2"/>
<path d="M1 30L2.73601 37.2912C3.19946 39.2377 4.77871 40.7205 6.7505 41.0604L12.3737 42.03C25.7056 44.3286 39.3191 44.4822 52.6995 42.4852L62.3152 41.05C64.5016 40.7236 66.2142 39.0003 66.5269 36.8119L67.5 30M49.5 23L70.445 3.02922C70.8085 2.68262 71.2574 2.4387 71.746 2.32237V2.32237C74.5298 1.65957 76.4336 5.06645 74.4101 7.08989L57 24.5M9 32.5L26.2492 30.8089C31.7357 30.271 37.2626 30.2878 42.7457 30.8589L58.5 32.5" stroke="#272626" stroke-opacity="0.75" stroke-width="2" stroke-linecap="round" stroke-linejoin="round"/>
</svg>
