<svg width="78" height="44" viewBox="0 0 78 44" fill="none" xmlns="http://www.w3.org/2000/svg">
<path d="M67.5 14C67.5 14.5562 67.053 15.3482 65.5761 16.2641C64.1533 17.1464 62.028 17.9775 59.313 18.6896C53.898 20.1099 46.3623 21 38 21C29.6377 21 22.102 20.1099 16.687 18.6896C13.972 17.9775 11.8467 17.1464 10.4239 16.2641C8.94697 15.3482 8.5 14.5562 8.5 14C8.5 13.4438 8.94697 12.6518 10.4239 11.7359C11.8467 10.8536 13.972 10.0225 16.687 9.31043C22.102 7.89008 29.6377 7 38 7C46.3623 7 53.898 7.89008 59.313 9.31043C62.028 10.0225 64.1533 10.8536 65.5761 11.7359C67.053 12.6518 67.5 13.4438 67.5 14Z" stroke="#272626" stroke-opacity="0.75" stroke-width="2"/>
<path d="M67 15V33.544C67 35.8624 65.4063 37.8767 63.1501 38.41L52.9503 40.8208C44.1032 42.912 34.8925 42.9304 26.0371 40.8747L15.029 38.3192C12.9236 37.8305 11.3706 36.0443 11.1792 33.8914L9.85982 19.048C9.66518 16.8582 7.65727 15.291 5.4858 15.6338L4.92669 15.7221C2.55687 16.0963 1.30429 18.7359 2.51317 20.8083V20.8083C3.12424 21.8558 4.24574 22.5 5.4585 22.5H13M30.5 9.5L31.3162 7.0513C32.35 3.95 35.0316 1.68745 38.2626 1.19037V1.19037C39.0833 1.0641 39.9179 1.05572 40.741 1.16546L40.8271 1.17694C44.564 1.6752 47.6332 4.3746 48.6046 8.01729L49 9.5M62 21.5H70.888C71.6065 21.5 72.3023 21.2481 72.8543 20.7881V20.7881C74.8727 19.1061 73.9846 15.8308 71.3929 15.3988L69 15" stroke="#272626" stroke-opacity="0.75" stroke-width="2" stroke-linecap="round" stroke-linejoin="round"/>
</svg>
