<svg width="50" height="37" viewBox="0 0 50 37" fill="none" xmlns="http://www.w3.org/2000/svg">
<path d="M2.70028 16.5632L5.50739 11.7145C8.48879 6.56482 15.8486 6.35655 19.1164 11.3294L21.0386 14.2544C22.6444 16.698 23.5 19.558 23.5 22.482V24.8483C23.5 28.3792 21.7353 31.6764 18.7975 33.635C16.086 35.4427 12.6917 35.8972 9.60014 34.8667L9.04257 34.6809C4.23963 33.0799 1 28.5851 1 23.5224V22.8935C1 20.6706 1.5865 18.487 2.70028 16.5632Z" stroke="#272626" stroke-opacity="0.75" stroke-width="2" stroke-linecap="round" stroke-linejoin="round"/>
<path d="M27.7003 16.5632L30.5074 11.7145C33.4888 6.56482 40.8486 6.35655 44.1164 11.3294L46.0386 14.2544C47.6444 16.698 48.5 19.558 48.5 22.482V24.8483C48.5 28.3792 46.7353 31.6764 43.7975 33.635C41.086 35.4427 37.6917 35.8972 34.6001 34.8667L34.0426 34.6809C29.2396 33.0799 26 28.5851 26 23.5224V22.8935C26 20.6706 26.5865 18.487 27.7003 16.5632Z" stroke="#272626" stroke-opacity="0.75" stroke-width="2" stroke-linecap="round" stroke-linejoin="round"/>
<path d="M17.5 9L19.5066 4.9869C19.8334 4.33324 20.2634 3.73655 20.7802 3.21979L20.9178 3.08225C22.7828 1.21721 25.589 0.662076 28.0237 1.67652V1.67652C29.3074 2.21141 30.386 3.14341 31.1016 4.33593L33 7.5M24 25.5H26" stroke="#272626" stroke-opacity="0.75" stroke-width="2" stroke-linecap="round" stroke-linejoin="round"/>
</svg>
