<svg width="46" height="59" viewBox="0 0 46 59" fill="none" xmlns="http://www.w3.org/2000/svg">
<path d="M44 45.5V45.5C45.5364 47.8046 44.5343 50.9393 41.946 51.9253L26.4148 57.842C26.1487 57.9434 25.8536 57.9377 25.5917 57.8261V57.8261M44 45.5L26 51.5M44 45.5L39.5 11M26 51.5L25.5917 57.8261M26 51.5L2.5 41.5M26 51.5L27 14.5M25.5917 57.8261L4.61516 48.8916C1.72188 47.6593 0.69658 44.0763 2.5 41.5V41.5M2.5 41.5L8 6.5M8 6.5L27 14.5M8 6.5L17.2939 2.05509C18.6859 1.38937 20.3072 1.4036 21.6872 2.09362L39.5 11M27 14.5L39.5 11M31 21H33.3197C34.0959 21 34.8615 20.8193 35.5557 20.4721L37.5 19.5M31 26H33.3197C34.0959 26 34.8615 25.8193 35.5557 25.4721L37.5 24.5M31 30.5H33.3197C34.0959 30.5 34.8615 30.3193 35.5557 29.9721L37.5 29M31 35.5H33.3197C34.0959 35.5 34.8615 35.3193 35.5557 34.9721L37.5 34M31 41.5H32.9861C33.9732 41.5 34.9383 41.2078 35.7596 40.6603L37.5 39.5M10.5 14.5L10.5529 14.7115C10.9912 16.4648 13.1116 17.157 14.5 16V16M18 17L18.6336 17.7603C19.7078 19.0493 21.5611 19.3633 23 18.5V18.5M9 21L9.0797 21.186C9.81836 22.9095 11.9398 23.5402 13.5 22.5V22.5M17.5 23.5L17.6787 23.7234C18.7218 25.0272 20.5682 25.3591 22 24.5V24.5M8 27L8.31492 27.3149C9.65408 28.6541 11.6349 29.1217 13.4316 28.5228L13.5 28.5M17.5 29L18.1667 29.5C19.0321 30.1491 20.0848 30.5 21.1667 30.5H22M7 32L7.55047 32.7707C8.67314 34.3424 10.7724 34.8638 12.5 34V34M17.5 35.5L17.818 35.8974C18.8169 37.1461 20.5153 37.5939 22 37V37M6.5 37V37C7.38483 38.4747 9.14967 39.1715 10.8033 38.6991L11.5 38.5M16 41L16.0455 41.0682C17.2176 42.8264 19.3684 43.6579 21.4184 43.1454L22 43" stroke="#272626" stroke-opacity="0.75" stroke-width="2" stroke-linecap="round" stroke-linejoin="round"/>
</svg>
