<svg width="81" height="43" viewBox="0 0 81 43" fill="none" xmlns="http://www.w3.org/2000/svg">
<path d="M25.251 24.8618C23.4926 29.5082 20.8472 33.2634 18.0411 35.5924C15.2089 37.9432 12.4 38.7097 10.1719 37.8665C7.94378 37.0232 6.34613 34.5891 5.77993 30.9522C5.21896 27.3489 5.72257 22.7832 7.48097 18.1368C9.23937 13.4905 11.8848 9.7353 14.6908 7.40623C17.5231 5.05542 20.332 4.28897 22.5601 5.13219C24.7882 5.97541 26.3858 8.40951 26.952 12.0464C27.513 15.6498 27.0094 20.2155 25.251 24.8618Z" stroke="#272626" stroke-opacity="0.75" stroke-width="2"/>
<path d="M22.8672 5L27.4628 8.00483C32.7776 11.4799 36.2345 17.1731 36.8663 23.4916L37.5409 30.2373C37.739 32.2184 36.7429 34.1283 35.0048 35.0995L31.415 37.1056C24.7829 40.8118 16.7836 41.1438 9.86719 38V38" stroke="#272626" stroke-opacity="0.75" stroke-width="2" stroke-linecap="round" stroke-linejoin="round"/>
<path d="M12.8672 13.5L14.8672 20.5M14.8672 20.5L21.8672 8.5M14.8672 20.5L24.3672 18.5M14.8672 20.5L16.3672 34M14.8672 20.5L7.86719 29" stroke="#272626" stroke-opacity="0.75" stroke-width="2" stroke-linecap="round" stroke-linejoin="round"/>
<path d="M53.4562 24.4054C55.3568 29.0438 58.2164 32.7938 61.2525 35.1213C64.3069 37.4629 67.379 38.2614 69.8551 37.3959C72.3311 36.5305 74.0611 34.0534 74.6717 30.4308C75.2787 26.8299 74.7336 22.2708 72.8331 17.6324C70.9325 12.994 68.0729 9.2439 65.0368 6.91638C61.9824 4.57484 58.9103 3.77632 56.4342 4.64179C53.9582 5.50727 52.2282 7.98435 51.6176 11.607C51.0106 15.2079 51.5557 19.7669 53.4562 24.4054Z" stroke="#272626" stroke-opacity="0.75" stroke-width="2"/>
<path d="M56.1046 4.51953L50.9321 7.64324C45.3222 11.0311 41.6155 16.8437 40.91 23.3591L40.2332 29.6108C40.0108 31.665 41.0748 33.6444 42.9109 34.5921L48.3084 37.3779C54.6221 40.6367 62.0551 40.9304 68.6063 38.1801L70.1797 37.5195" stroke="#272626" stroke-opacity="0.75" stroke-width="2" stroke-linecap="round" stroke-linejoin="round"/>
<path d="M66.9381 13.0195L64.7727 20.0195M64.7727 20.0195L57.1938 8.01953M64.7727 20.0195L54.487 18.0195M64.7727 20.0195L63.1486 33.5195M64.7727 20.0195L72.3516 28.5195" stroke="#272626" stroke-opacity="0.75" stroke-width="2" stroke-linecap="round" stroke-linejoin="round"/>
</svg>
