<svg width="52" height="37" viewBox="0 0 52 37" fill="none" xmlns="http://www.w3.org/2000/svg">
<path d="M17.6406 22.7031C17.6406 23.3309 17.2235 24.0579 16.2127 24.6799C15.2181 25.2919 13.781 25.7031 12.1406 25.7031C10.5003 25.7031 9.06312 25.2919 8.06853 24.6799C7.05776 24.0579 6.64062 23.3309 6.64062 22.7031C6.64062 22.0753 7.05776 21.3484 8.06853 20.7264C9.06312 20.1143 10.5003 19.7031 12.1406 19.7031C13.781 19.7031 15.2181 20.1143 16.2127 20.7264C17.2235 21.3484 17.6406 22.0753 17.6406 22.7031Z" stroke="#272626" stroke-opacity="0.75" stroke-width="2"/>
<path d="M35.6406 22.7031C35.6406 23.3309 35.2235 24.0579 34.2127 24.6799C33.2181 25.2919 31.781 25.7031 30.1406 25.7031C28.5003 25.7031 27.0631 25.2919 26.0685 24.6799C25.0578 24.0579 24.6406 23.3309 24.6406 22.7031C24.6406 22.0753 25.0578 21.3484 26.0685 20.7264C27.0631 20.1143 28.5003 19.7031 30.1406 19.7031C31.781 19.7031 33.2181 20.1143 34.2127 20.7264C35.2235 21.3484 35.6406 22.0753 35.6406 22.7031Z" stroke="#272626" stroke-opacity="0.75" stroke-width="2"/>
<path d="M23.2295 12.6128C23.4679 13.1935 23.358 14.0244 22.6591 14.9837C21.9714 15.9275 20.798 16.8536 19.2805 17.4764C17.763 18.0993 16.2773 18.2646 15.1248 18.076C13.9536 17.8844 13.2917 17.3703 13.0533 16.7895C12.8149 16.2087 12.9248 15.3778 13.6237 14.4186C14.3114 13.4747 15.4848 12.5486 17.0023 11.9258C18.5198 11.303 20.0054 11.1376 21.1579 11.3262C22.3292 11.5178 22.9911 12.032 23.2295 12.6128Z" stroke="#272626" stroke-opacity="0.75" stroke-width="2"/>
<path d="M31.621 4.09998C31.7087 4.72161 31.3973 5.49974 30.4834 6.25691C29.5841 7.00197 28.2185 7.60997 26.5942 7.83923C24.97 8.06849 23.4895 7.86222 22.4191 7.39518C21.3313 6.92054 20.8167 6.25902 20.7289 5.63738C20.6412 5.01575 20.9526 4.23762 21.8665 3.48045C22.7658 2.73539 24.1314 2.12738 25.7557 1.89812C27.3799 1.66886 28.8604 1.87514 29.9308 2.34218C31.0186 2.81681 31.5332 3.47834 31.621 4.09998Z" stroke="#272626" stroke-opacity="0.75" stroke-width="2"/>
<path d="M10.5983 6.56396C11.0897 6.9546 11.3993 7.7335 11.2572 8.91179C11.1175 10.0712 10.5451 11.4521 9.52436 12.7362C8.50366 14.0203 7.2875 14.8895 6.18948 15.2872C5.07361 15.6914 4.24497 15.5656 3.75352 15.1749C3.26207 14.7843 2.95256 14.0054 3.09459 12.8271C3.23435 11.6677 3.80676 10.2868 4.82746 9.00269C5.84815 7.71862 7.06432 6.84942 8.16233 6.45169C9.2782 6.0475 10.1068 6.17331 10.5983 6.56396Z" stroke="#272626" stroke-opacity="0.75" stroke-width="2"/>
<path d="M48.6226 11.1456C48.243 11.6456 47.4711 11.9723 46.29 11.8565C45.1277 11.7425 43.7345 11.2008 42.4281 10.2089C41.1217 9.21693 40.2257 8.02035 39.8037 6.93143C39.3748 5.82481 39.4822 4.99358 39.8619 4.49358C40.2415 3.99358 41.0134 3.66686 42.1945 3.78271C43.3568 3.89671 44.75 4.43834 46.0564 5.4303C47.3629 6.42225 48.2588 7.61883 48.6808 8.70775C49.1097 9.81437 49.0023 10.6456 48.6226 11.1456Z" stroke="#272626" stroke-opacity="0.75" stroke-width="2"/>
<path d="M49.916 20.9731C49.805 21.591 49.2659 22.2327 48.161 22.6662C47.0739 23.0927 45.5867 23.2433 43.9722 22.9532C42.3577 22.6631 41.0159 22.0043 40.1452 21.226C39.2604 20.435 38.9784 19.6458 39.0894 19.0279C39.2004 18.41 39.7395 17.7682 40.8444 17.3348C41.9315 16.9082 43.4187 16.7577 45.0332 17.0478C46.6477 17.3378 47.9895 17.9967 48.8602 18.775C49.745 19.5659 50.027 20.3552 49.916 20.9731Z" stroke="#272626" stroke-opacity="0.75" stroke-width="2"/>
<path d="M43.8022 28.5476C44.0705 29.311 43.9004 30.2635 43.1893 31.2373C42.4813 32.2068 41.2901 33.1052 39.7629 33.6419C38.2357 34.1787 36.7443 34.2231 35.5855 33.9098C34.4216 33.595 33.6928 32.9584 33.4245 32.195C33.1562 31.4316 33.3264 30.479 34.0375 29.5052C34.7454 28.5358 35.9366 27.6374 37.4639 27.1006C38.9911 26.5639 40.4824 26.5194 41.6412 26.8328C42.8052 27.1476 43.5339 27.7842 43.8022 28.5476Z" stroke="#272626" stroke-opacity="0.75" stroke-width="2"/>
<path d="M28.6253 32.0004C28.3972 32.5853 27.7445 33.111 26.5768 33.3233C25.4278 33.5322 23.9394 33.3932 22.4112 32.7972C20.8829 32.2013 19.6933 31.2961 18.9891 30.3645C18.2734 29.4178 18.1488 28.5889 18.3769 28.0041C18.605 27.4192 19.2577 26.8934 20.4254 26.6811C21.5744 26.4722 23.0628 26.6113 24.591 27.2072C26.1192 27.8031 27.3088 28.7083 28.0131 29.6399C28.7288 30.5866 28.8534 31.4155 28.6253 32.0004Z" stroke="#272626" stroke-opacity="0.75" stroke-width="2"/>
<path d="M38.8486 12.7306C38.9932 13.3416 38.7547 14.145 37.9143 14.9831C37.0874 15.8077 35.7835 16.5388 34.1873 16.9166C32.5911 17.2943 31.0978 17.2252 29.989 16.8586C28.8622 16.4861 28.2888 15.8747 28.1443 15.2638C27.9997 14.6528 28.2382 13.8494 29.0786 13.0113C29.9055 12.1867 31.2093 11.4556 32.8056 11.0778C34.4018 10.7001 35.8951 10.7693 37.0039 11.1358C38.1307 11.5084 38.704 12.1197 38.8486 12.7306Z" stroke="#272626" stroke-opacity="0.75" stroke-width="2"/>
</svg>
