<svg width="50" height="52" viewBox="0 0 50 52" fill="none" xmlns="http://www.w3.org/2000/svg">
<path d="M7.5 49.5L13.0386 50.1154C21.2993 51.0333 29.6511 50.7051 37.8144 49.1419L44.9404 47.7774C47.2964 47.3262 49 45.2654 49 42.8666V40.2539C49 39.1185 48.6136 38.017 47.9043 37.1304L46.0957 34.8696C45.3864 33.983 45 32.8815 45 31.7461V29.6803C45 28.9041 44.8193 28.1385 44.4721 27.4443L42.5279 23.5557C42.1807 22.8615 42 22.0959 42 21.3197V17.5711C42 16.245 41.4732 14.9732 40.5355 14.0355L35.5 9L28.5 3M7.5 49.5L9.81803 43.0095C9.93899 42.6708 10.0961 42.3462 10.2867 42.0412L11.74 39.716C12.2367 38.9214 12.5 38.0031 12.5 37.066V35.2938C12.5 34.1341 12.9031 33.0105 13.6403 32.1153L17.3527 27.6074C18.6501 26.032 18.8598 23.8263 17.8825 22.0346L17.6628 21.6318C16.9286 20.2858 16.8526 18.6773 17.4566 17.268L19.3544 12.8397C19.4513 12.6135 19.5314 12.3805 19.5941 12.1426L21.0191 6.72753C21.5971 4.53097 23.5831 3 25.8544 3H28.5M7.5 49.5L2.71083 45.9711C0.493629 44.3374 0.689348 40.9632 3.08057 39.5968V39.5968C4.2675 38.9186 5 37.6563 5 36.2893V31.1033C5 29.4717 5.79605 27.9428 7.13269 27.0071L7.86731 26.4929C9.20394 25.5572 10 24.0283 10 22.3967V16.4284C10 15.8147 10.113 15.2063 10.3333 14.6335L12.5 9L14.8485 4.30301C15.8301 2.33972 17.9775 1.24624 20.1426 1.6071L28.5 3" stroke="#272626" stroke-opacity="0.75" stroke-width="2" stroke-linecap="round" stroke-linejoin="round"/>
</svg>
