<svg width="23" height="41" viewBox="0 0 23 41" fill="none" xmlns="http://www.w3.org/2000/svg">
<path d="M4.8518 4.9487L4.87453 4.87587C5.2464 3.6843 6.1777 2.75005 7.36808 2.3744V2.3744C10.2094 1.47778 13.251 1.43256 16.1177 2.24432L17.0851 2.51827M4.8518 4.9487H8.36515C11.439 4.9487 14.4544 4.10826 17.0851 2.51827V2.51827M4.8518 4.9487L2.34043 12.9957M17.0851 2.51827V2.51827C18.1806 2.79761 19.0247 3.67136 19.266 4.7759L20.2128 9.10972M2.34043 12.9957L1.2765 16.4047C1.09373 16.9904 1.0203 17.6047 1.05987 18.2169L2.12966 34.765C2.25425 36.6922 3.64761 38.3004 5.53747 38.6981V38.6981C9.56913 39.5466 13.7624 39.17 17.5783 37.6166L17.7296 37.5551C19.2554 36.934 20.3083 35.515 20.4606 33.8747L21.9283 18.0626C21.9758 17.5511 21.9442 17.0353 21.8345 16.5333L20.2128 9.10972M2.34043 12.9957L7.21274 10.7346C8.38665 10.1899 9.72605 10.1215 10.9493 10.5439L13.5747 11.4504C15.2028 12.0125 17.0056 11.6971 18.3461 10.6157L20.2128 9.10972M15.0358 18.0455V18.0455C16.0301 17.6793 17.0851 18.415 17.0851 19.4746V24.4145C17.0851 24.8802 16.7948 25.2965 16.3577 25.4575V25.4575C13.3535 26.5639 10.0669 26.6414 7.01385 25.6776L6.35386 25.4692C5.82658 25.3028 5.46809 24.8137 5.46809 24.2607V21.1508C5.46809 20.1095 6.31218 19.2654 7.35344 19.2654H8.19346C10.5283 19.2654 12.8448 18.8524 15.0358 18.0455Z" stroke="#272626" stroke-opacity="0.75" stroke-width="2" stroke-linecap="round" stroke-linejoin="round"/>
</svg>
