<svg width="37" height="43" viewBox="0 0 37 43" fill="none" xmlns="http://www.w3.org/2000/svg">
<path d="M35.6516 3.48897C35.6517 3.48897 35.651 3.49038 35.6493 3.49323C35.6506 3.49039 35.6515 3.48897 35.6516 3.48897ZM34.7744 3.09616C35.1871 3.287 35.4371 3.45669 35.5698 3.58334C35.4371 3.70998 35.1871 3.87967 34.7744 4.07051C33.9535 4.45021 32.7022 4.81776 31.0768 5.13574C27.8425 5.76847 23.3306 6.16667 18.3168 6.16667C13.3031 6.16667 8.79119 5.76847 5.55687 5.13574C3.93146 4.81776 2.68016 4.45021 1.85922 4.07051C1.44661 3.87967 1.19658 3.70998 1.06385 3.58333C1.19658 3.45669 1.44661 3.287 1.85922 3.09616C2.68016 2.71645 3.93146 2.34891 5.55687 2.03093C8.79119 1.3982 13.3031 1 18.3168 1C23.3306 1 27.8425 1.3982 31.0768 2.03093C32.7022 2.34891 33.9535 2.71645 34.7744 3.09616ZM0.982094 3.48897C0.982206 3.48897 0.98309 3.49042 0.98441 3.49332C0.982643 3.49041 0.981983 3.48897 0.982094 3.48897ZM0.982094 3.6777C0.981983 3.6777 0.982643 3.67625 0.98441 3.67335C0.98309 3.67624 0.982206 3.6777 0.982094 3.6777ZM35.6493 3.67343C35.651 3.67628 35.6517 3.6777 35.6516 3.6777C35.6515 3.67769 35.6506 3.67627 35.6493 3.67343Z" stroke="#272626" stroke-opacity="0.75" stroke-width="2"/>
<path d="M30.0369 6.37326V6.37326C31.6556 9.15105 35.9183 7.76324 35.5913 4.5649L35.5319 3.98438M2.19531 3.98438L8.13406 37.3956C8.31155 38.3942 9.03139 39.2103 10 39.5111L12.3133 40.2294C18.0902 42.0233 24.3091 41.7694 29.9206 39.5106V39.5106C30.6672 39.2101 31.184 38.5184 31.2606 37.7173L34.0666 8.364" stroke="#272626" stroke-opacity="0.75" stroke-width="2" stroke-linecap="round" stroke-linejoin="round"/>
<path d="M4 14L7.70088 15.1103C11.8481 16.3544 16.2205 16.6584 20.5 16V16" stroke="#272626" stroke-opacity="0.75" stroke-width="2" stroke-linecap="round" stroke-linejoin="round"/>
</svg>
