<svg width="43" height="55" viewBox="0 0 43 55" fill="none" xmlns="http://www.w3.org/2000/svg">
<path d="M34 4.5C34 4.63651 33.9035 4.96728 33.2427 5.43594C32.6079 5.88618 31.6245 6.33258 30.3193 6.72415C27.7215 7.50347 24.0729 8 20 8C15.9271 8 12.2785 7.50347 9.68075 6.72415C8.37551 6.33258 7.39209 5.88618 6.75731 5.43594C6.09654 4.96728 6 4.63651 6 4.5C6 4.36349 6.09654 4.03272 6.75731 3.56406C7.39209 3.11382 8.37551 2.66742 9.68075 2.27585C12.2785 1.49653 15.9271 1 20 1C24.0729 1 27.7215 1.49653 30.3193 2.27585C31.6245 2.66742 32.6079 3.11382 33.2427 3.56406C33.9035 4.03272 34 4.36349 34 4.5Z" stroke="#272626" stroke-opacity="0.75" stroke-width="2"/>
<path d="M5.5 4.5V11.98C5.5 14.2621 7.22924 16.1729 9.5 16.4V16.4M34 5.5L34.3804 13.4885C34.4476 14.899 33.404 16.1174 32 16.2679V16.2679M9.5 16.4V16.4C16.0739 18.1092 22.9583 18.2441 29.5942 16.7937L32 16.2679M9.5 16.4L5.37245 20.2274C4.48747 21.048 3.92918 22.161 3.8006 23.361L1.46087 45.1985C1.19627 47.6681 2.78462 49.9576 5.19054 50.5745L7.32827 51.1226C15.9792 53.3408 25.0401 53.419 33.728 51.3505L37.2176 50.5196C39.6657 49.9367 41.2991 47.6252 41.031 45.1229L40.5762 40.8779M32 16.2679L36.8846 20.1997C37.9188 21.0322 38.5795 22.2418 38.7209 23.5619L39.2408 28.4143M40.5762 40.8779L38.3738 41.3032C30.8297 42.7603 23.1166 43.1359 15.4666 42.4187V42.4187C12.9899 42.1866 11.1594 40.0077 11.3577 37.5281L11.6319 34.1013C11.8398 31.5028 14.0092 29.5 16.616 29.5H27L39.2408 28.4143M40.5762 40.8779L39.2408 28.4143" stroke="#272626" stroke-opacity="0.75" stroke-width="2" stroke-linecap="round" stroke-linejoin="round"/>
<ellipse cx="15" cy="3.5" rx="1" ry="0.5" fill="#272626" fill-opacity="0.75"/>
<ellipse cx="15" cy="3.5" rx="1" ry="0.5" fill="#272626" fill-opacity="0.75"/>
<ellipse cx="15" cy="3.5" rx="1" ry="0.5" fill="#272626" fill-opacity="0.75"/>
<ellipse cx="15" cy="3.5" rx="1" ry="0.5" fill="#272626" fill-opacity="0.75"/>
<ellipse cx="19" cy="3.5" rx="1" ry="0.5" fill="#272626" fill-opacity="0.75"/>
<ellipse cx="19" cy="3.5" rx="1" ry="0.5" fill="#272626" fill-opacity="0.75"/>
<ellipse cx="19" cy="3.5" rx="1" ry="0.5" fill="#272626" fill-opacity="0.75"/>
<ellipse cx="19" cy="3.5" rx="1" ry="0.5" fill="#272626" fill-opacity="0.75"/>
<ellipse cx="22" cy="5.5" rx="1" ry="0.5" fill="#272626" fill-opacity="0.75"/>
<ellipse cx="22" cy="5.5" rx="1" ry="0.5" fill="#272626" fill-opacity="0.75"/>
<ellipse cx="22" cy="5.5" rx="1" ry="0.5" fill="#272626" fill-opacity="0.75"/>
<ellipse cx="22" cy="5.5" rx="1" ry="0.5" fill="#272626" fill-opacity="0.75"/>
<ellipse cx="17" cy="5.5" rx="1" ry="0.5" fill="#272626" fill-opacity="0.75"/>
<ellipse cx="17" cy="5.5" rx="1" ry="0.5" fill="#272626" fill-opacity="0.75"/>
<ellipse cx="17" cy="5.5" rx="1" ry="0.5" fill="#272626" fill-opacity="0.75"/>
<ellipse cx="17" cy="5.5" rx="1" ry="0.5" fill="#272626" fill-opacity="0.75"/>
<ellipse cx="24" cy="3.5" rx="1" ry="0.5" fill="#272626" fill-opacity="0.75"/>
<ellipse cx="24" cy="3.5" rx="1" ry="0.5" fill="#272626" fill-opacity="0.75"/>
<ellipse cx="24" cy="3.5" rx="1" ry="0.5" fill="#272626" fill-opacity="0.75"/>
<ellipse cx="24" cy="3.5" rx="1" ry="0.5" fill="#272626" fill-opacity="0.75"/>
</svg>
