<svg width="32" height="41" viewBox="0 0 32 41" fill="none" xmlns="http://www.w3.org/2000/svg">
<path d="M9.5 9L11.1838 8.43874C11.8313 8.2229 12.5 8.70487 12.5 9.38743V11.238C12.5 12.1732 13.6695 12.5967 14.2682 11.8781L17.009 8.58915C17.2987 8.2416 17.7856 8.13179 18.1963 8.32138L23.6013 10.816C23.7875 10.9019 24 10.7659 24 10.5609V10.5609C24 10.5208 23.9914 10.4811 23.9748 10.4446L21.8519 5.77415C21.649 5.32783 21.7996 4.80025 22.2076 4.5283L22.9856 4.00963C23.9092 3.39389 23.2917 1.95644 22.2092 2.20245L16.7539 3.44228C16.5874 3.48013 16.414 3.4747 16.2502 3.42652L10.5252 1.74271C9.64282 1.48318 8.90757 2.45212 9.39505 3.23207L10.0441 4.27055C10.3062 4.68994 10.2224 5.23795 9.84689 5.55981L7.37599 7.67772C6.54271 8.39196 7.30184 9.73272 8.34301 9.38566L9.5 9ZM9.5 9L5.9298 11.1001C2.87541 12.8968 1 16.1758 1 19.7195V21.1552C1 23.0149 1.51853 24.8376 2.49735 26.4188L6.35475 32.65C7.10942 33.8691 8.11742 34.9116 9.31039 35.7069L9.91528 36.1102C13.774 38.6827 18.8951 38.2646 22.2855 35.1002L23.1487 34.2946C23.7143 33.7666 24.2168 33.1748 24.646 32.531L27.9257 27.6114C28.6353 26.547 29.1341 25.3564 29.395 24.104L30.398 19.2898C31.0857 15.9888 30.0635 12.5635 27.6792 10.1792L27.6313 10.1313C27.5445 10.0445 27.4425 9.97444 27.3303 9.92459L23 8" stroke="#272626" stroke-opacity="0.75" stroke-width="2" stroke-linecap="round" stroke-linejoin="round"/>
<ellipse cx="9.5" cy="18" rx="0.5" ry="1" fill="#272626" fill-opacity="0.75"/>
<ellipse cx="13.5" cy="24" rx="0.5" ry="1" fill="#272626" fill-opacity="0.75"/>
<ellipse cx="16.5" cy="16" rx="0.5" ry="1" fill="#272626" fill-opacity="0.75"/>
<ellipse cx="7.5" cy="26" rx="0.5" ry="1" fill="#272626" fill-opacity="0.75"/>
<ellipse cx="24.5" cy="16" rx="0.5" ry="1" fill="#272626" fill-opacity="0.75"/>
<ellipse cx="20.5" cy="23" rx="0.5" ry="1" fill="#272626" fill-opacity="0.75"/>
<ellipse cx="14.5" cy="31" rx="0.5" ry="1" fill="#272626" fill-opacity="0.75"/>
<ellipse cx="20.5" cy="29" rx="0.5" ry="1" fill="#272626" fill-opacity="0.75"/>
</svg>
