<svg width="45" height="33" viewBox="0 0 45 33" fill="none" xmlns="http://www.w3.org/2000/svg">
<path d="M16.25 16C16.25 19.1768 15.3367 22.0211 13.8984 24.0518C12.4588 26.0842 10.5393 27.25 8.5 27.25C6.46068 27.25 4.54125 26.0842 3.10161 24.0518C1.66325 22.0211 0.75 19.1768 0.75 16C0.75 12.8232 1.66325 9.97886 3.10161 7.94823C4.54125 5.9158 6.46068 4.75 8.5 4.75C10.5393 4.75 12.4588 5.9158 13.8984 7.94823C15.3367 9.97886 16.25 12.8232 16.25 16Z" stroke="#222222" stroke-opacity="0.75" stroke-width="1.5"/>
<path d="M9.25 16C9.25 17.0134 9.04303 17.8937 8.74339 18.493C8.42133 19.1371 8.11516 19.25 8 19.25C7.88484 19.25 7.57867 19.1371 7.25661 18.493C6.95697 17.8937 6.75 17.0134 6.75 16C6.75 14.9866 6.95697 14.1063 7.25661 13.507C7.57867 12.8629 7.88484 12.75 8 12.75C8.11516 12.75 8.42133 12.8629 8.74339 13.507C9.04303 14.1063 9.25 14.9866 9.25 16Z" stroke="#222222" stroke-opacity="0.75" stroke-width="1.5"/>
<path d="M8.5 4.5L24.5215 1.3847C25.7909 1.13788 27.1065 1.39244 28.1922 2.09492L30.7265 3.7348C33.4374 5.48892 35.2407 8.34554 35.6583 11.5473L36.2675 16.2178C36.4178 17.3698 36.9646 18.4336 37.8139 19.2263L42.7812 23.8624C43.3332 24.3776 43.1369 25.2953 42.4225 25.5397L25.5899 31.2982C25.2289 31.4217 24.829 31.329 24.5591 31.0591L21.3346 27.8346C20.7858 27.2858 20.3722 26.6166 20.1267 25.8802L19.2566 23.2697C19.0866 22.7599 19 22.226 19 21.6886V18.077C19 15.7523 18.2635 13.4873 16.8961 11.6071L15 9M10 28L19 25" stroke="#272626" stroke-opacity="0.75" stroke-width="2" stroke-linecap="round" stroke-linejoin="round"/>
</svg>
