<svg width="75" height="45" viewBox="0 0 75 45" fill="none" xmlns="http://www.w3.org/2000/svg">
<path d="M1 17.5L4.44779 7.84619C5.32442 5.39162 7.93957 4.02219 10.4564 4.69979L14.5472 5.80117C17.0625 6.47837 18.6365 8.97327 18.1646 11.5351L18.0789 12M18.0789 12L17.9495 12.7026C17.3087 16.1812 12.4448 16.495 11.3624 13.1275V13.1275C11.1277 12.3973 11.1465 11.6092 11.4158 10.8911L13.905 4.25343C14.8095 1.84125 17.3988 0.511227 19.8865 1.18097L23.3796 2.12142C26.1575 2.86933 27.7329 5.80141 26.8231 8.53064L22.9216 20.2351C21.9262 23.2215 18.4519 24.5561 15.7131 23.0041L9.18804 19.3066C7.29022 18.2311 6.30862 16.0495 6.76257 13.9159L7.54047 10.2598C8.57196 5.41177 15.2701 4.85772 17.0841 9.47036L18.0789 12ZM3.5 22L15.2493 31.0962C17.3519 32.7241 20.3609 32.4214 22.0972 30.4073L28.7054 22.7418C30.314 20.8758 30.3236 18.116 28.728 16.2388L26.5563 13.6839C24.6484 11.4393 21.2232 11.3224 19.1666 13.4317L3.5 29.5M60 31.5L64.1609 19.6574C65.3035 16.4055 62.8904 13 59.4436 13H51M60 31.5L51 13M60 31.5L54.3201 28.6601C52.3912 27.6956 51.4147 25.5009 51.9896 23.4223L53.5717 17.7025C54.4922 14.3743 59.2966 14.6386 59.8464 18.0477V18.0477C59.9466 18.6689 59.8624 19.3058 59.6042 19.8796L53.3084 33.8702C52.0798 36.6003 48.7436 37.6461 46.1763 36.1058L40.4418 32.6651C39.2076 31.9246 38.3524 30.6881 38.0949 29.272L35.2883 13.8354C34.8377 11.3576 36.3004 8.93145 38.7019 8.17307L53.5 3.5M51 13V13C48.5147 13 46.5 15.0147 46.5 17.5V26.4026C46.5 26.7995 46.4528 27.1949 46.3593 27.5806L42.5 43.5M54.1416 33.1787L45.9047 18.9015C44.2173 15.9766 45.8546 12.2545 49.151 11.522L65.0049 7.99892C67.5451 7.43443 70.0936 8.91263 70.8649 11.3979L73.1347 18.7119C73.6694 20.4346 73.2347 22.3117 71.9974 23.624L62.1104 34.1101C59.8127 36.5472 55.8154 36.0799 54.1416 33.1787Z" stroke="#272626" stroke-opacity="0.75" stroke-width="2" stroke-linecap="round" stroke-linejoin="round"/>
</svg>
