<svg width="60" height="41" viewBox="0 0 60 41" fill="none" xmlns="http://www.w3.org/2000/svg">
<path d="M29.25 28.5C29.25 34.8671 23.0039 40.25 15 40.25C6.9961 40.25 0.75 34.8671 0.75 28.5C0.75 22.1329 6.9961 16.75 15 16.75C23.0039 16.75 29.25 22.1329 29.25 28.5Z" stroke="#272626" stroke-opacity="0.75" stroke-width="1.5"/>
<path d="M5.5 24L10.5638 20.4943C11.3287 19.9648 12.3885 20.2285 12.8263 21.0494C13.2585 21.8598 14.508 21.4051 14.2714 20.5177C14.1077 19.9037 14.3364 19.2521 14.8479 18.8752L15.3456 18.5085C16.2027 17.8769 15.3926 16.5537 14.4403 17.0298L14.2322 17.1339C13.3432 17.5784 12.2713 17.0854 12.0303 16.1212C11.8081 15.2326 10.5 15.3936 10.5 16.3096V16.6205C10.5 17.6125 9.62142 18.3745 8.63943 18.2342L3.5 17.5L7.02591 18.5074C8.53728 18.9392 8.98274 20.8655 7.8144 21.917L5.5 24Z" stroke="#272626" stroke-opacity="0.75" stroke-width="2" stroke-linecap="round" stroke-linejoin="round"/>
<path d="M30.75 18.5C30.75 24.8671 36.9961 30.25 45 30.25C53.0039 30.25 59.25 24.8671 59.25 18.5C59.25 12.1329 53.0039 6.75 45 6.75C36.9961 6.75 30.75 12.1329 30.75 18.5Z" stroke="#272626" stroke-opacity="0.75" stroke-width="1.5"/>
<path d="M55 14L49.9362 10.4943C49.1713 9.96476 48.1115 10.2285 47.6737 11.0494C47.2415 11.8598 45.992 11.4051 46.2286 10.5177C46.3923 9.90372 46.1636 9.25214 45.6521 8.87523L45.1544 8.50854C44.2973 7.87694 45.1074 6.55369 46.0597 7.02985L46.2678 7.13392C47.1568 7.57838 48.2287 7.08538 48.4697 6.12121C48.6919 5.23257 50 5.39362 50 6.3096V6.62054C50 7.6125 50.8786 8.37449 51.8606 8.2342L57 7.5L53.4741 8.5074C51.9627 8.93922 51.5173 10.8655 52.6856 11.917L55 14Z" stroke="#272626" stroke-opacity="0.75" stroke-width="2" stroke-linecap="round" stroke-linejoin="round"/>
</svg>
