<svg width="39" height="41" viewBox="0 0 39 41" fill="none" xmlns="http://www.w3.org/2000/svg">
<path d="M2.366 7.07893L1.33789 9.46561C0.617529 11.1379 1.47955 13.0688 3.20548 13.6489C5.06612 14.2743 5.8909 16.4445 4.91535 18.1478L3.84551 20.0158C3.42253 20.7543 3.2 21.5906 3.2 22.4417V33C3.2 36.866 6.334 40 10.2 40H28.6C32.466 40 35.6 36.866 35.6 33V18.012C35.6 17.4666 35.3366 16.9547 34.8927 16.6377C33.8105 15.8646 34.0048 14.2021 35.2362 13.6995L36.1747 13.3165C37.2192 12.8901 37.7859 11.7557 37.4994 10.6645L36.3799 6.39961C35.9027 4.58188 34.4306 3.19547 32.5876 2.82809L32.0695 2.72481C23.1141 0.939685 13.8467 1.54058 5.19686 4.46723C3.92577 4.8973 2.89688 5.84653 2.366 7.07893Z" stroke="#272626" stroke-opacity="0.75" stroke-width="2" stroke-linecap="round" stroke-linejoin="round"/>
</svg>
