<svg width="37" height="38" viewBox="0 0 37 38" fill="none" xmlns="http://www.w3.org/2000/svg">
<path d="M1.29015 12.8776L9.8345 2.13279C10.4036 1.41706 11.2681 1 12.1826 1H34.7377C35.5141 1 35.9944 1.84633 35.5961 2.51288L30.3794 11.2448C29.906 12.037 29.0943 12.5674 28.1786 12.6826L13.7412 14.5H2.07284C1.2357 14.5 0.769105 13.5328 1.29015 12.8776Z" stroke="#272626" stroke-opacity="0.75" stroke-width="2" stroke-linecap="round" stroke-linejoin="round"/>
<path d="M3.4375 15L5.64709 27.1289C6.14903 29.8843 7.90506 32.2489 10.3976 33.5259L14.6014 35.6796C16.2773 36.5382 18.1802 36.8495 20.0423 36.5698L25.9318 35.6849C28.79 35.2555 31.2606 33.4626 32.5552 30.8785V30.8785C33.1741 29.6432 33.4963 28.2806 33.4963 26.899V7M22.3316 15V29" stroke="#272626" stroke-opacity="0.75" stroke-width="2" stroke-linecap="round" stroke-linejoin="round"/>
</svg>
