<svg width="173" height="81" viewBox="0 0 173 81" fill="none" xmlns="http://www.w3.org/2000/svg">
<path d="M34 40.3557V25.6904C34 24.0336 35.3431 23.3096 37 23.3096H68C69.6569 23.3096 71 24.1726 71 25.8295V40.3557C71 60.9893 34 61.439 34 40.3557Z" fill="white" stroke="#5D5C5C" stroke-width="1.5"/>
<path d="M62.2674 42.0644C62.2674 43.2045 61.3432 42.4084 60.203 42.4084C59.0629 42.4084 58.1387 43.2045 58.1387 42.0644C58.1387 40.9242 59.0629 40 60.203 40C61.3432 40 62.2674 40.9242 62.2674 42.0644Z" fill="#272626" fill-opacity="0.75"/>
<path d="M47.1287 42.4081C47.1287 43.5482 46.2045 43.0962 45.0644 43.0962C43.9243 43.0962 43 43.5482 43 42.4081C43 41.268 43.9243 40.3438 45.0644 40.3438C46.2045 40.3438 47.1287 41.268 47.1287 42.4081Z" fill="#272626" fill-opacity="0.75"/>
<path d="M53.3821 46.808C52.9642 47.1099 52.3994 47.1148 51.9776 46.8186C51.0109 46.14 51.5013 44.6203 52.6824 44.6196C53.8524 44.6196 54.3305 46.1229 53.3821 46.808Z" fill="#272626" fill-opacity="0.75"/>
<path d="M58.0972 47.0723C58.2763 47.0249 58.4625 47.1318 58.4828 47.316C58.5077 47.5431 58.4983 47.7748 58.4544 48.0052C58.3889 48.3482 58.248 48.6815 58.0398 48.9859C57.8316 49.2903 57.5602 49.5599 57.241 49.7793C56.9217 49.9987 56.561 50.1636 56.1794 50.2646C55.7978 50.3656 55.4027 50.4007 55.0168 50.3679C54.6308 50.3351 54.2615 50.2351 53.93 50.0735C53.5985 49.9119 53.3112 49.692 53.0846 49.4262C52.9325 49.2478 52.8097 49.0511 52.719 48.8413C52.6455 48.6713 52.7545 48.4862 52.9336 48.4388C53.1127 48.3914 53.2936 48.5003 53.3743 48.6671C53.4408 48.8046 53.5256 48.9342 53.6272 49.0534C53.8032 49.2598 54.0263 49.4307 54.2839 49.5562C54.5414 49.6817 54.8282 49.7594 55.128 49.7848C55.4279 49.8103 55.7347 49.783 56.0312 49.7046C56.3277 49.6261 56.6079 49.498 56.8558 49.3276C57.1038 49.1571 57.3147 48.9477 57.4764 48.7113C57.6381 48.4748 57.7475 48.2159 57.7984 47.9494C57.8278 47.7957 57.8373 47.6411 57.8271 47.4886C57.8147 47.3038 57.918 47.1197 58.0972 47.0723Z" fill="#BE895F"/>
<path d="M58.0972 47.0723C58.2763 47.0249 58.4625 47.1318 58.4828 47.316C58.5077 47.5431 58.4983 47.7748 58.4544 48.0052C58.3889 48.3482 58.248 48.6815 58.0398 48.9859C57.8316 49.2903 57.5602 49.5599 57.241 49.7793C56.9217 49.9987 56.561 50.1636 56.1794 50.2646C55.7978 50.3656 55.4027 50.4007 55.0168 50.3679C54.6308 50.3351 54.2615 50.2351 53.93 50.0735C53.5985 49.9119 53.3112 49.692 53.0846 49.4262C52.9325 49.2478 52.8097 49.0511 52.719 48.8413C52.6455 48.6713 52.7545 48.4862 52.9336 48.4388C53.1127 48.3914 53.2936 48.5003 53.3743 48.6671C53.4408 48.8046 53.5256 48.9342 53.6272 49.0534C53.8032 49.2598 54.0263 49.4307 54.2839 49.5562C54.5414 49.6817 54.8282 49.7594 55.128 49.7848C55.4279 49.8103 55.7347 49.783 56.0312 49.7046C56.3277 49.6261 56.6079 49.498 56.8558 49.3276C57.1038 49.1571 57.3147 48.9477 57.4764 48.7113C57.6381 48.4748 57.7475 48.2159 57.7984 47.9494C57.8278 47.7957 57.8373 47.6411 57.8271 47.4886C57.8147 47.3038 57.918 47.1197 58.0972 47.0723Z" fill="#272626" fill-opacity="0.75"/>
<path d="M39.6397 32.783C39.0485 33.3398 38.0826 33.3124 37.7906 32.5545C37.6141 32.0962 37.5289 31.6089 37.5401 31.1203C37.5512 30.6318 37.6585 30.1516 37.8557 29.7072C38.0529 29.2627 38.3361 28.8628 38.6893 28.5301C39.0425 28.1975 39.4587 27.9386 39.9141 27.7684C40.3696 27.5982 40.8553 27.5199 41.3437 27.538C41.832 27.5561 42.3133 27.6702 42.7602 27.8739C43.4993 28.2108 43.4689 29.1765 42.8777 29.7334L41.2587 31.2582L39.6397 32.783Z" fill="#272626" fill-opacity="0.75"/>
<path d="M61.6018 29.6059C61.0562 29.0042 61.1021 28.0391 61.8654 27.7615C62.3269 27.5937 62.8158 27.5178 63.304 27.5383C63.7923 27.5587 64.2703 27.675 64.7109 27.8806C65.1515 28.0862 65.546 28.377 65.8719 28.7365C66.1978 29.0959 66.4487 29.517 66.6102 29.9755C66.7718 30.4341 66.8408 30.9213 66.8135 31.4092C66.7861 31.8971 66.6628 32.3762 66.4507 32.8191C66.0999 33.5516 65.1349 33.5029 64.5894 32.9012L63.0956 31.2536L61.6018 29.6059Z" fill="#272626" fill-opacity="0.75"/>
<path d="M7.2 55C5.79 55 4.71 54.64 3.96 53.92C3.24 53.17 2.88 52.105 2.88 50.725V27.55C2.88 26.17 3.24 25.12 3.96 24.4C4.71 23.65 5.79 23.275 7.2 23.275H18.18C20.46 23.275 22.395 23.62 23.985 24.31C25.605 24.97 26.835 25.915 27.675 27.145C28.515 28.375 28.935 29.815 28.935 31.465C28.935 33.325 28.395 34.915 27.315 36.235C26.265 37.555 24.825 38.455 22.995 38.935V38.215C25.155 38.605 26.82 39.475 27.99 40.825C29.19 42.175 29.79 43.9 29.79 46C29.79 48.79 28.785 50.995 26.775 52.615C24.795 54.205 22.08 55 18.63 55H7.2ZM10.8 48.925H17.505C19.035 48.925 20.145 48.64 20.835 48.07C21.555 47.47 21.915 46.585 21.915 45.415C21.915 44.245 21.555 43.375 20.835 42.805C20.145 42.235 19.035 41.95 17.505 41.95H10.8V48.925ZM10.8 35.875H16.695C18.195 35.875 19.29 35.605 19.98 35.065C20.7 34.525 21.06 33.7 21.06 32.59C21.06 31.48 20.7 30.67 19.98 30.16C19.29 29.62 18.195 29.35 16.695 29.35H10.8V35.875ZM81.3336 55C79.9236 55 78.8436 54.64 78.0936 53.92C77.3736 53.17 77.0136 52.105 77.0136 50.725V27.55C77.0136 26.17 77.3736 25.12 78.0936 24.4C78.8436 23.65 79.9236 23.275 81.3336 23.275H90.1536C95.6736 23.275 99.9336 24.655 102.934 27.415C105.964 30.175 107.479 34.075 107.479 39.115C107.479 41.635 107.089 43.885 106.309 45.865C105.529 47.815 104.404 49.48 102.934 50.86C101.464 52.21 99.6486 53.245 97.4886 53.965C95.3586 54.655 92.9136 55 90.1536 55H81.3336ZM85.2936 48.295H89.6136C91.2036 48.295 92.5686 48.1 93.7086 47.71C94.8786 47.32 95.8386 46.75 96.5886 46C97.3686 45.25 97.9386 44.305 98.2986 43.165C98.6886 42.025 98.8836 40.675 98.8836 39.115C98.8836 35.995 98.1186 33.7 96.5886 32.23C95.0586 30.73 92.7336 29.98 89.6136 29.98H85.2936V48.295ZM116.755 55C115.345 55 114.265 54.64 113.515 53.92C112.795 53.17 112.435 52.105 112.435 50.725V27.55C112.435 26.17 112.795 25.12 113.515 24.4C114.265 23.65 115.345 23.275 116.755 23.275H125.575C131.095 23.275 135.355 24.655 138.355 27.415C141.385 30.175 142.9 34.075 142.9 39.115C142.9 41.635 142.51 43.885 141.73 45.865C140.95 47.815 139.825 49.48 138.355 50.86C136.885 52.21 135.07 53.245 132.91 53.965C130.78 54.655 128.335 55 125.575 55H116.755ZM120.715 48.295H125.035C126.625 48.295 127.99 48.1 129.13 47.71C130.3 47.32 131.26 46.75 132.01 46C132.79 45.25 133.36 44.305 133.72 43.165C134.11 42.025 134.305 40.675 134.305 39.115C134.305 35.995 133.54 33.7 132.01 32.23C130.48 30.73 128.155 29.98 125.035 29.98H120.715V48.295ZM157.62 55.405C156.3 55.405 155.28 55.045 154.56 54.325C153.84 53.575 153.48 52.51 153.48 51.13V38.8L155.19 43.345L144.84 28.45C144.33 27.73 144.105 26.935 144.165 26.065C144.255 25.165 144.615 24.415 145.245 23.815C145.905 23.185 146.835 22.87 148.035 22.87C148.875 22.87 149.64 23.08 150.33 23.5C151.02 23.89 151.665 24.565 152.265 25.525L158.565 34.795H156.945L163.245 25.48C163.875 24.52 164.52 23.845 165.18 23.455C165.84 23.065 166.62 22.87 167.52 22.87C168.66 22.87 169.545 23.155 170.175 23.725C170.805 24.295 171.135 25.015 171.165 25.885C171.225 26.755 170.955 27.64 170.355 28.54L160.095 43.345L161.76 38.8V51.13C161.76 53.98 160.38 55.405 157.62 55.405Z" fill="#272626" fill-opacity="0.75"/>
</svg>
