<svg width="23" height="25" viewBox="0 0 23 25" fill="none" xmlns="http://www.w3.org/2000/svg">
<path d="M19.3281 21.4258L20.9031 23.0008" stroke="#272626" stroke-width="2.5" stroke-linecap="round" stroke-linejoin="round"/>
<path d="M13.5469 18.7984C13.5469 20.5382 14.9571 21.9484 16.6969 21.9484C17.5683 21.9484 18.3569 21.5946 18.9272 21.0228C19.4955 20.453 19.8469 19.6668 19.8469 18.7984C19.8469 17.0587 18.4366 15.6484 16.6969 15.6484C14.9571 15.6484 13.5469 17.0587 13.5469 18.7984Z" stroke="#272626" stroke-width="2.5" stroke-linecap="round" stroke-linejoin="round"/>
<path d="M18.7999 12.5V5.93594C18.7999 5.76886 18.7336 5.60862 18.6155 5.49046L15.3094 2.18453C15.1913 2.06637 15.0311 2 14.864 2H2.63C2.28206 2 2 2.28206 2 2.63V22.3699C2 22.7179 2.28206 22.9999 2.63 22.9999H9.34997" stroke="#272626" stroke-width="2.5" stroke-linecap="round" stroke-linejoin="round"/>
<path d="M14.6016 2V5.56999C14.6016 5.91792 14.8836 6.19999 15.2316 6.19999H18.8015" stroke="#272626" stroke-width="2.5" stroke-linecap="round" stroke-linejoin="round"/>
</svg>
