<svg width="25" height="23" viewBox="0 0 25 23" fill="none" xmlns="http://www.w3.org/2000/svg">
<path d="M5.625 2.23438H18.6789C18.6789 2.23438 17.5911 18.6101 12.152 18.6101C9.49492 18.6101 7.87625 14.7023 6.91554 10.7046C5.9096 6.51874 5.625 2.23438 5.625 2.23438Z" stroke="#272626" stroke-width="2" stroke-linecap="round" stroke-linejoin="round"/>
<path d="M18.6812 2.23627C18.6812 2.23627 19.8191 1.02243 20.7648 1.00101C22.6177 0.959062 22.9602 2.23627 22.9602 2.23627C23.3229 2.98918 23.6129 4.94675 21.8725 6.75373C20.1319 8.56071 18.1835 10.1418 17.3906 10.7064" stroke="#272626" stroke-width="2" stroke-linecap="round" stroke-linejoin="round"/>
<path d="M5.62638 2.23537C5.62638 2.23537 4.44079 1.0077 3.47048 1.00012C1.61762 0.98566 1.27507 2.23537 1.27507 2.23537C0.912457 2.98827 0.622373 4.94583 2.3629 6.75282C4.10342 8.55981 6.12413 10.1409 6.91692 10.7057" stroke="#272626" stroke-width="2" stroke-linecap="round" stroke-linejoin="round"/>
<path d="M7.80469 22.0014C7.80469 19.7427 12.1559 18.6133 12.1559 18.6133C12.1559 18.6133 16.5073 19.7427 16.5073 22.0014H7.80469Z" stroke="#272626" stroke-width="2" stroke-linecap="round" stroke-linejoin="round"/>
</svg>
